<?xml version="1.0" standalone="no"?>
<!DOCTYPE svg PUBLIC "-//W3C//DTD SVG 20010904//EN"
 "http://www.w3.org/TR/2001/REC-SVG-20010904/DTD/svg10.dtd">
<svg version="1.0" xmlns="http://www.w3.org/2000/svg"
 width="1920.000000pt" height="569.000000pt" viewBox="0 0 1920.000000 569.000000"
 preserveAspectRatio="xMidYMid meet">

<g transform="translate(0.000000,569.000000) scale(0.100000,-0.100000)" stroke="none" fill="white">
<path d="M594 5560 c-200 -27 -384 -184 -447 -385 l-22 -70 0 -2260 0 -2260
24 -73 c58 -177 198 -312 380 -366 50 -15 806 -16 9066 -16 8260 0 9016 1
9066 16 186 56 327 197 383 383 15 50 16 265 16 2319 l0 2263 -25 76 c-57 170
-179 292 -355 355 l-65 23 -8980 1 c-4939 1 -9007 -2 -9041 -6z m3423 -857
c-8 -115 -27 -192 -72 -289 -115 -250 -344 -425 -579 -441 l-79 -6 6 104 c16
319 242 597 572 705 39 13 90 23 114 24 l44 0 -6 -97z m6093 -433 l0 -490 -75
0 -75 0 0 490 0 490 75 0 75 0 0 -490z m2440 16 c0 -261 3 -481 6 -490 5 -14
-4 -16 -65 -16 l-71 0 0 52 0 53 -39 -43 c-50 -54 -99 -75 -182 -75 -112 0
-203 62 -252 172 -32 70 -36 219 -8 309 39 130 142 212 267 212 77 0 120 -14
162 -53 l32 -31 0 192 0 192 75 0 75 0 0 -474z m3440 273 l0 -202 43 40 c55
51 102 66 182 61 81 -5 130 -36 170 -109 l30 -54 3 -257 3 -258 -69 0 -70 0
-4 223 c-5 235 -11 271 -57 311 -12 11 -41 21 -68 23 -66 6 -112 -19 -140 -77
-22 -42 -23 -56 -23 -262 l0 -218 -75 0 -75 0 0 490 0 490 75 0 75 0 0 -201z
m-9331 135 c178 -40 287 -166 311 -358 21 -172 -27 -334 -129 -429 -118 -111
-320 -157 -570 -131 l-61 7 0 458 0 457 63 6 c34 3 78 8 97 10 59 7 222 -4
289 -20z m8811 -164 l0 -80 85 0 85 0 0 -55 0 -55 -86 0 -86 0 4 -199 c3 -194
4 -200 27 -225 18 -19 35 -26 75 -28 l51 -3 3 -52 c3 -49 1 -53 -23 -59 -14
-3 -59 -4 -100 -2 -89 4 -119 22 -154 92 -22 45 -24 61 -29 262 l-5 214 -43 0
-44 0 0 55 0 55 45 0 44 0 3 61 3 62 55 17 c92 30 90 31 90 -60z m-7856 -91
c68 -25 146 -106 170 -176 63 -184 -2 -389 -148 -461 -93 -47 -226 -48 -313
-4 -239 124 -220 545 30 641 72 28 188 28 261 0z m1951 2 c50 -23 78 -53 107
-116 22 -47 23 -64 26 -297 l4 -248 -76 0 -75 0 -3 233 c-3 199 -6 237 -21
264 -49 91 -186 81 -238 -17 -17 -31 -19 -60 -19 -257 l0 -223 -75 0 -75 0 0
274 c0 150 -3 301 -6 335 l-7 61 66 0 66 0 7 -49 6 -50 33 34 c67 72 192 97
280 56z m1212 4 c72 -21 142 -87 178 -167 25 -54 29 -76 29 -153 1 -161 -57
-266 -179 -326 -58 -28 -75 -32 -148 -32 -108 0 -169 26 -236 99 -66 72 -86
132 -85 249 0 68 6 104 23 148 30 76 100 147 171 175 67 26 174 29 247 7z
m774 0 c56 -20 96 -58 122 -115 18 -38 22 -69 24 -190 2 -80 4 -193 6 -252 l2
-108 -67 0 -68 0 0 35 c0 40 -9 44 -36 14 -72 -81 -254 -82 -326 -2 -51 56
-62 160 -25 233 43 87 141 136 291 147 l78 6 -5 39 c-13 100 -134 135 -266 77
-24 -11 -45 -18 -46 -17 -12 19 -25 92 -17 100 5 5 36 18 68 28 74 24 204 26
265 5z m2083 -5 c69 -26 130 -85 164 -158 24 -50 27 -69 27 -162 0 -94 -3
-111 -29 -167 -64 -139 -204 -210 -361 -182 -140 25 -234 127 -255 280 -11 77
4 177 34 238 32 63 115 137 175 155 70 22 180 20 245 -4z m865 1 c21 -11 52
-36 69 -55 54 -61 62 -111 62 -373 l0 -233 -75 0 -75 0 0 225 c0 239 -5 270
-49 309 -12 11 -41 21 -68 23 -63 6 -110 -20 -140 -77 -22 -41 -23 -54 -23
-262 l0 -218 -75 0 -74 0 -3 335 -3 335 68 0 67 0 0 -52 0 -52 38 38 c20 22
55 47 77 57 55 25 154 25 204 0z m2588 -6 c83 -42 136 -128 149 -242 3 -34 4
-73 0 -87 l-6 -26 -220 0 -220 0 0 -27 c0 -16 9 -46 19 -69 46 -101 180 -131
353 -78 24 7 44 -86 22 -103 -27 -20 -147 -36 -235 -31 -98 5 -156 28 -213 86
-50 49 -73 97 -88 180 -22 130 15 256 102 343 57 57 112 77 211 78 61 1 84 -4
126 -24z m-8942 -137 c20 -84 45 -196 56 -248 11 -52 23 -102 26 -110 3 -8 16
26 29 75 14 50 48 168 76 263 l51 172 61 0 61 0 63 -222 c35 -123 65 -238 69
-256 9 -49 20 -47 28 6 5 39 92 394 111 455 4 14 17 17 75 17 44 0 69 -4 69
-11 0 -6 -46 -157 -102 -335 l-102 -324 -67 0 -68 0 -30 98 c-28 92 -77 262
-102 362 l-12 45 -13 -60 c-7 -33 -34 -127 -59 -210 -26 -82 -53 -168 -59
-190 l-12 -40 -72 -3 c-40 -2 -72 -1 -72 1 0 2 -43 149 -95 327 -52 178 -95
327 -95 332 0 4 33 8 74 8 l74 0 37 -152z m-3950 -398 c165 -42 341 -152 435
-271 22 -28 40 -54 40 -57 0 -4 -32 -32 -71 -62 -39 -30 -100 -91 -135 -134
-122 -152 -174 -300 -175 -492 0 -241 78 -425 248 -584 71 -66 194 -150 221
-150 18 0 15 -12 -22 -108 -49 -128 -124 -273 -206 -397 -202 -307 -338 -428
-513 -457 -91 -15 -181 1 -324 58 -173 68 -218 77 -358 71 -129 -5 -153 -11
-350 -88 -104 -41 -115 -43 -215 -44 -100 0 -109 2 -175 34 -153 75 -378 353
-528 651 -273 543 -323 1115 -132 1518 58 123 116 202 213 293 127 119 277
196 436 224 173 30 249 18 497 -75 210 -79 242 -83 369 -37 243 89 329 117
380 126 83 15 272 5 365 -19z m8080 -799 c44 -11 101 -29 127 -40 l47 -20 -25
-78 c-13 -43 -29 -97 -35 -121 -9 -33 -16 -42 -28 -39 -9 3 -48 17 -86 31
-198 71 -421 55 -517 -38 -48 -47 -70 -98 -70 -165 0 -124 59 -192 242 -278
63 -30 157 -75 209 -99 263 -124 381 -284 381 -514 0 -153 -48 -270 -154 -375
-80 -80 -162 -125 -285 -156 -146 -38 -376 -35 -536 6 -69 18 -195 74 -195 87
0 11 61 231 66 240 3 4 36 -9 75 -28 116 -58 204 -77 354 -77 112 -1 138 2
186 21 121 48 184 136 183 257 -1 153 -80 235 -324 334 -335 137 -483 285
-506 504 -29 279 177 517 491 567 90 14 307 4 400 -19z m-5241 -48 c69 -215
570 -1767 581 -1801 l14 -42 -162 0 -162 0 -86 273 -86 272 -310 3 -310 2 -83
-275 -83 -275 -158 0 -158 0 24 73 c14 39 133 410 265 822 133 413 259 805
281 873 l41 122 188 0 188 0 16 -47z m6156 -313 l0 -170 165 0 165 0 0 -110 0
-110 -165 0 -166 0 3 -387 3 -388 25 -49 c40 -79 64 -91 180 -90 l97 0 7 -80
c11 -149 13 -142 -46 -157 -31 -8 -104 -14 -173 -14 -111 0 -125 3 -182 29
-64 29 -128 88 -156 143 -46 89 -50 128 -54 571 l-5 422 -99 0 -99 0 0 110 0
110 100 0 99 0 3 127 3 127 135 42 c74 23 141 43 148 43 9 1 12 -39 12 -169z
m-4427 -155 c87 -23 150 -59 224 -129 121 -113 183 -252 203 -451 27 -269 -43
-507 -196 -659 -107 -108 -217 -156 -374 -163 -173 -9 -300 38 -381 140 l-39
48 -2 -358 -3 -358 -148 -3 c-112 -2 -149 0 -152 10 -3 7 -6 439 -7 961 l-3
947 131 0 131 0 7 -61 c3 -34 6 -79 6 -100 0 -21 5 -41 10 -44 6 -3 10 -2 10
4 0 18 100 119 148 150 52 33 113 58 177 71 66 13 197 11 258 -5z m1570 0 c32
-8 80 -26 107 -40 66 -33 177 -139 219 -209 141 -235 140 -639 -4 -876 -39
-65 -134 -161 -197 -200 -97 -60 -152 -74 -298 -74 -118 0 -142 2 -193 22 -67
28 -148 89 -174 132 -18 31 -18 26 -23 -327 l-5 -358 -152 -3 -153 -3 0 899
c0 495 -3 927 -6 961 l-7 61 135 0 135 0 7 -61 c3 -34 6 -82 6 -105 0 -24 5
-44 10 -44 6 0 10 4 10 8 0 15 72 93 122 132 49 39 131 75 203 90 67 13 198
11 258 -5z m4201 0 c230 -49 406 -222 472 -465 29 -102 26 -349 -4 -455 -63
-220 -216 -385 -417 -452 -72 -24 -95 -27 -230 -27 -139 -1 -156 1 -228 27
-298 105 -453 380 -425 757 13 181 78 327 201 451 78 79 188 138 302 163 91
19 242 19 329 1z m1484 -132 l3 -142 -79 0 c-99 1 -150 -13 -204 -54 -44 -34
-99 -115 -120 -177 -8 -24 -13 -167 -15 -452 l-4 -418 -150 0 -149 0 0 538 c0
295 -3 601 -7 680 l-6 142 131 0 130 0 6 -92 c4 -51 7 -111 9 -133 l2 -40 23
49 c72 158 205 248 357 243 l70 -2 3 -142z m947 132 c86 -23 172 -72 233 -135
67 -69 135 -204 157 -312 15 -76 21 -271 9 -302 -5 -14 -55 -16 -461 -16
l-454 0 6 -47 c28 -204 143 -320 352 -354 96 -15 282 5 390 42 l53 18 5 -22
c3 -12 14 -60 24 -105 l19 -84 -36 -15 c-124 -52 -366 -82 -517 -64 -181 21
-302 78 -409 191 -110 118 -162 251 -172 445 -20 371 177 688 472 759 81 20
255 20 329 1z"/>
<path d="M12170 4328 c-67 -35 -100 -104 -100 -212 0 -145 63 -230 170 -230
62 0 112 32 140 89 19 40 21 58 18 157 -3 100 -6 117 -27 147 -26 36 -90 70
-131 71 -14 0 -46 -10 -70 -22z"/>
<path d="M6383 4594 l-23 -5 0 -351 0 -351 108 5 c87 3 117 9 163 30 104 47
160 129 181 263 29 186 -44 342 -181 390 -46 16 -206 28 -248 19z"/>
<path d="M7381 4314 c-51 -45 -73 -110 -73 -209 1 -112 42 -189 120 -222 113
-47 222 63 222 226 0 98 -16 146 -66 198 -39 42 -43 43 -102 43 -57 0 -65 -3
-101 -36z"/>
<path d="M10580 4334 c-64 -46 -93 -114 -94 -220 -1 -70 3 -88 29 -140 25 -49
38 -63 77 -82 83 -41 162 -10 211 82 18 34 22 57 22 141 0 109 -15 154 -69
205 -36 32 -138 41 -176 14z"/>
<path d="M11405 4095 c-59 -21 -95 -65 -95 -118 0 -53 20 -82 64 -97 50 -16
107 2 145 45 29 33 31 41 31 110 l0 75 -52 0 c-29 -1 -71 -7 -93 -15z"/>
<path d="M13440 4343 c-62 -23 -110 -119 -110 -222 0 -93 14 -141 57 -191 66
-76 161 -76 226 1 43 49 62 114 60 201 -2 82 -26 141 -77 186 -32 28 -44 32
-89 31 -29 0 -59 -3 -67 -6z"/>
<path d="M16874 4341 c-38 -23 -73 -78 -81 -126 l-6 -36 154 3 154 3 -3 35
c-6 54 -37 105 -76 124 -45 21 -104 20 -142 -3z"/>
<path d="M6776 2692 c-30 -120 -171 -594 -203 -679 -4 -10 49 -13 246 -13 138
0 251 4 251 8 0 5 -36 121 -81 258 -44 137 -100 323 -124 412 -24 90 -45 166
-47 168 -2 2 -21 -68 -42 -154z"/>
<path d="M8443 2346 c-92 -30 -166 -98 -210 -191 -28 -60 -28 -60 -28 -275 0
-202 1 -218 23 -264 33 -72 83 -128 143 -161 44 -23 69 -30 135 -33 108 -6
167 14 239 79 86 79 129 187 141 349 15 216 -68 405 -209 477 -61 31 -171 40
-234 19z"/>
<path d="M10013 2346 c-92 -30 -166 -98 -210 -191 -28 -60 -28 -60 -28 -275 0
-211 1 -216 26 -270 57 -123 143 -181 275 -188 106 -6 166 14 234 75 100 89
144 210 144 393 0 220 -70 367 -207 437 -61 31 -171 40 -234 19z"/>
<path d="M14285 2371 c-127 -33 -217 -141 -261 -311 -20 -78 -22 -241 -5 -325
33 -156 135 -288 249 -321 114 -34 239 1 317 88 44 48 91 141 112 221 23 85
22 261 -1 347 -36 133 -116 243 -206 283 -48 22 -156 31 -205 18z"/>
<path d="M16683 2377 c-110 -41 -212 -180 -225 -307 l-3 -35 314 -3 314 -2 -5
71 c-10 131 -93 250 -196 279 -49 13 -159 12 -199 -3z"/>
</g>
</svg>
